HIERARCHY
ROOT Hips
{
	OFFSET 0.000000 0.000000 0.000000
	CHANNELS 6 Xposition Yposition Zposition Zrotation Yrotation Xrotation 
	JOINT Spine1
	{
		OFFSET -0.013727 5.003762 -0.053727
		CHANNELS 3 Zrotation Yrotation Xrotation
		JOINT Spine2
		{
			OFFSET -0.000000 7.125302 -0.029825
			CHANNELS 3 Zrotation Yrotation Xrotation
			JOINT Chest
			{
				OFFSET -0.000001 7.550064 -0.815971
				CHANNELS 3 Zrotation Yrotation Xrotation
				JOINT Neck1
				{
					OFFSET -0.181677 26.311296 -0.553348
					CHANNELS 3 Zrotation Yrotation Xrotation
					JOINT Neck2
					{
						OFFSET -0.000003 7.709398 2.302586
						CHANNELS 3 Zrotation Yrotation Xrotation
						JOINT Head
						{
							OFFSET -0.000005 6.128913 1.953708
							CHANNELS 3 Zrotation Yrotation Xrotation
							JOINT HeadEnd
							{
								OFFSET 0.003598 16.065401 -1.835379
								CHANNELS 3 Zrotation Yrotation Xrotation
								End Site
								{
									OFFSET 0.000000 0.000000 0.000000
								}
							}
							JOINT Jaw
							{
								OFFSET 0.002637 0.475591 3.094941
								CHANNELS 3 Zrotation Yrotation Xrotation
								End Site
								{
									OFFSET 0.000000 0.000000 0.000000
								}
							}
							JOINT LeftEye
							{
								OFFSET 3.206381 5.380207 7.586883
								CHANNELS 3 Zrotation Yrotation Xrotation
								End Site
								{
									OFFSET 0.000000 0.000000 0.000000
								}
							}
							JOINT RightEye
							{
								OFFSET -3.222440 5.361867 7.558233
								CHANNELS 3 Zrotation Yrotation Xrotation
								End Site
								{
									OFFSET 0.000000 0.000000 0.000000
								}
							}
						}
					}
				}
				JOINT LeftShoulder
				{
					OFFSET 1.621652 23.237164 5.113413
					CHANNELS 3 Zrotation Yrotation Xrotation
					JOINT LeftArm
					{
						OFFSET 14.919845 0.000000 -5.502326
						CHANNELS 3 Zrotation Yrotation Xrotation
						JOINT LeftForeArm
						{
							OFFSET 28.739309 0.000003 -0.002588
							CHANNELS 3 Zrotation Yrotation Xrotation
							JOINT LeftHand
							{
								OFFSET 27.093979 -0.000003 0.002609
								CHANNELS 3 Zrotation Yrotation Xrotation
								JOINT LeftHandThumb1
								{
									OFFSET 2.276480 -1.392046 3.191413
									CHANNELS 3 Zrotation Yrotation Xrotation
									JOINT LeftHandThumb2
									{
										OFFSET 4.012841 -1.828126 1.641656
										CHANNELS 3 Zrotation Yrotation Xrotation
										JOINT LeftHandThumb3
										{
											OFFSET 2.798516 0.000001 -0.000003
											CHANNELS 3 Zrotation Yrotation Xrotation
											JOINT LeftHandThumbEnd
											{
												OFFSET 3.180791 -0.000001 0.000003
												CHANNELS 3 Zrotation Yrotation Xrotation
												End Site
												{
													OFFSET 0.000000 0.000000 0.000000
												}
											}
										}
									}
								}
								JOINT LeftHandIndex1
								{
									OFFSET 3.247553 -0.531998 2.296169
									CHANNELS 3 Zrotation Yrotation Xrotation
									JOINT LeftHandIndex2
									{
										OFFSET 6.364580 0.012062 0.178600
										CHANNELS 3 Zrotation Yrotation Xrotation
										JOINT LeftHandIndex3
										{
											OFFSET 3.662366 0.000001 -0.000000
											CHANNELS 3 Zrotation Yrotation Xrotation
											JOINT LeftHandIndex4
											{
												OFFSET 2.329243 0.000003 0.000004
												CHANNELS 3 Zrotation Yrotation Xrotation
												JOINT LeftHandIndexEnd
												{
													OFFSET 2.759619 -0.180539 -0.113024
													CHANNELS 3 Zrotation Yrotation Xrotation
													End Site
													{
														OFFSET 0.000000 0.000000 0.000000
													}
												}
											}
										}
									}
								}
								JOINT LeftHandMiddle1
								{
									OFFSET 3.163499 0.240982 1.000332
									CHANNELS 3 Zrotation Yrotation Xrotation
									JOINT LeftHandMiddle2
									{
										OFFSET 6.190778 -0.259276 -1.002549
										CHANNELS 3 Zrotation Yrotation Xrotation
										JOINT LeftHandMiddle3
										{
											OFFSET 4.356523 -0.000006 0.000000
											CHANNELS 3 Zrotation Yrotation Xrotation
											JOINT LeftHandMiddle4
											{
												OFFSET 2.996875 -0.000006 0.000001
												CHANNELS 3 Zrotation Yrotation Xrotation
												JOINT LeftHandMiddleEnd
												{
													OFFSET 2.304294 -0.294571 -0.031740
													CHANNELS 3 Zrotation Yrotation Xrotation
													End Site
													{
														OFFSET 0.000000 0.000000 0.000000
													}
												}
											}
										}
									}
								}
								JOINT LeftHandRing1
								{
									OFFSET 2.882642 -0.053650 -0.322543
									CHANNELS 3 Zrotation Yrotation Xrotation
									JOINT LeftHandRing2
									{
										OFFSET 5.854542 -0.486203 -1.373841
										CHANNELS 3 Zrotation Yrotation Xrotation
										JOINT LeftHandRing3
										{
											OFFSET 4.350581 0.000000 0.000003
											CHANNELS 3 Zrotation Yrotation Xrotation
											JOINT LeftHandRing4
											{
												OFFSET 2.651324 0.000008 0.000003
												CHANNELS 3 Zrotation Yrotation Xrotation
												JOINT LeftHandRingEnd
												{
													OFFSET 1.936110 0.077685 -0.000070
													CHANNELS 3 Zrotation Yrotation Xrotation
													End Site
													{
														OFFSET 0.000000 0.000000 0.000000
													}
												}
											}
										}
									}
								}
								JOINT LeftHandPinky1
								{
									OFFSET 2.865499 -0.310004 -1.600378
									CHANNELS 3 Zrotation Yrotation Xrotation
									JOINT LeftHandPinky2
									{
										OFFSET 5.087853 -1.331142 -1.771231
										CHANNELS 3 Zrotation Yrotation Xrotation
										JOINT LeftHandPinky3
										{
											OFFSET 3.070975 0.000003 0.000001
											CHANNELS 3 Zrotation Yrotation Xrotation
											JOINT LeftHandPinky4
											{
												OFFSET 1.549668 0.000000 0.000001
												CHANNELS 3 Zrotation Yrotation Xrotation
												JOINT LeftHandPinkyEnd
												{
													OFFSET 1.944895 -0.157802 0.057219
													CHANNELS 3 Zrotation Yrotation Xrotation
													End Site
													{
														OFFSET 0.000000 0.000000 0.000000
													}
												}
											}
										}
									}
								}
							}
						}
					}
				}
				JOINT RightShoulder
				{
					OFFSET -1.380118 23.180305 5.214158
					CHANNELS 3 Zrotation Yrotation Xrotation
					JOINT RightArm
					{
						OFFSET -15.037197 0.000012 -5.545604
						CHANNELS 3 Zrotation Yrotation Xrotation
						JOINT RightForeArm
						{
							OFFSET -28.736639 0.000003 -0.002597
							CHANNELS 3 Zrotation Yrotation Xrotation
							JOINT RightHand
							{
								OFFSET -27.133617 0.000000 0.002613
								CHANNELS 3 Zrotation Yrotation Xrotation
								JOINT RightHandThumb1
								{
									OFFSET -2.274036 -1.383990 3.163127
									CHANNELS 3 Zrotation Yrotation Xrotation
									JOINT RightHandThumb2
									{
										OFFSET -4.011429 -1.827467 1.640914
										CHANNELS 3 Zrotation Yrotation Xrotation
										JOINT RightHandThumb3
										{
											OFFSET -2.794934 -0.000003 -0.000003
											CHANNELS 3 Zrotation Yrotation Xrotation
											JOINT RightHandThumbEnd
											{
												OFFSET -3.183855 0.000003 -0.000001
												CHANNELS 3 Zrotation Yrotation Xrotation
												End Site
												{
													OFFSET 0.000000 0.000000 0.000000
												}
											}
										}
									}
								}
								JOINT RightHandIndex1
								{
									OFFSET -3.253270 -0.520060 2.282866
									CHANNELS 3 Zrotation Yrotation Xrotation
									JOINT RightHandIndex2
									{
										OFFSET -6.341918 0.012472 0.178265
										CHANNELS 3 Zrotation Yrotation Xrotation
										JOINT RightHandIndex3
										{
											OFFSET -3.654875 -0.000008 -0.000001
											CHANNELS 3 Zrotation Yrotation Xrotation
											JOINT RightHandIndex4
											{
												OFFSET -2.327586 -0.000000 0.000001
												CHANNELS 3 Zrotation Yrotation Xrotation
												JOINT RightHandIndexEnd
												{
													OFFSET -2.761789 -0.180657 -0.113078
													CHANNELS 3 Zrotation Yrotation Xrotation
													End Site
													{
														OFFSET 0.000000 0.000000 0.000000
													}
												}
											}
										}
									}
								}
								JOINT RightHandMiddle1
								{
									OFFSET -3.168106 0.246593 1.001030
									CHANNELS 3 Zrotation Yrotation Xrotation
									JOINT RightHandMiddle2
									{
										OFFSET -6.180830 -0.258835 -1.000896
										CHANNELS 3 Zrotation Yrotation Xrotation
										JOINT RightHandMiddle3
										{
											OFFSET -4.348906 -0.000000 -0.000001
											CHANNELS 3 Zrotation Yrotation Xrotation
											JOINT RightHandMiddle4
											{
												OFFSET -3.000243 -0.000004 -0.000002
												CHANNELS 3 Zrotation Yrotation Xrotation
												JOINT RightHandMiddleEnd
												{
													OFFSET -2.302518 -0.294371 -0.031706
													CHANNELS 3 Zrotation Yrotation Xrotation
													End Site
													{
														OFFSET 0.000000 0.000000 0.000000
													}
												}
											}
										}
									}
								}
								JOINT RightHandRing1
								{
									OFFSET -2.885694 -0.067952 -0.308859
									CHANNELS 3 Zrotation Yrotation Xrotation
									JOINT RightHandRing2
									{
										OFFSET -5.854196 -0.486132 -1.373732
										CHANNELS 3 Zrotation Yrotation Xrotation
										JOINT RightHandRing3
										{
											OFFSET -4.338814 -0.000003 -0.000000
											CHANNELS 3 Zrotation Yrotation Xrotation
											JOINT RightHandRing4
											{
												OFFSET -2.654906 -0.000004 0.000004
												CHANNELS 3 Zrotation Yrotation Xrotation
												JOINT RightHandRingEnd
												{
													OFFSET -1.933570 0.077524 -0.000052
													CHANNELS 3 Zrotation Yrotation Xrotation
													End Site
													{
														OFFSET 0.000000 0.000000 0.000000
													}
												}
											}
										}
									}
								}
								JOINT RightHandPinky1
								{
									OFFSET -2.866429 -0.342798 -1.584145
									CHANNELS 3 Zrotation Yrotation Xrotation
									JOINT RightHandPinky2
									{
										OFFSET -5.091370 -1.332054 -1.772385
										CHANNELS 3 Zrotation Yrotation Xrotation
										JOINT RightHandPinky3
										{
											OFFSET -3.062666 -0.000006 0.000000
											CHANNELS 3 Zrotation Yrotation Xrotation
											JOINT RightHandPinky4
											{
												OFFSET -1.546526 0.000006 -0.000002
												CHANNELS 3 Zrotation Yrotation Xrotation
												JOINT RightHandPinkyEnd
												{
													OFFSET -1.945122 -0.157721 0.057211
													CHANNELS 3 Zrotation Yrotation Xrotation
													End Site
													{
														OFFSET 0.000000 0.000000 0.000000
													}
												}
											}
										}
									}
								}
							}
						}
					}
				}
			}
		}
	}
	JOINT LeftLeg
	{
		OFFSET 10.043214 -8.434526 2.595655
		CHANNELS 3 Zrotation Yrotation Xrotation
		JOINT LeftShin
		{
			OFFSET -0.000001 -43.221752 -0.802913
			CHANNELS 3 Zrotation Yrotation Xrotation
			JOINT LeftFoot
			{
				OFFSET 0.000001 -42.155094 -3.481523
				CHANNELS 3 Zrotation Yrotation Xrotation
				JOINT LeftToeBase
				{
					OFFSET -0.000000 -5.059475 13.231529
					CHANNELS 3 Zrotation Yrotation Xrotation
					JOINT LeftToeEnd
					{
						OFFSET -0.009607 -1.647615 6.513017
						CHANNELS 3 Zrotation Yrotation Xrotation
						End Site
						{
							OFFSET 0.000000 0.000000 0.000000
						}
					}
				}
			}
		}
	}
	JOINT RightLeg
	{
		OFFSET -10.047277 -8.295259 2.620317
		CHANNELS 3 Zrotation Yrotation Xrotation
		JOINT RightShin
		{
			OFFSET 0.000001 -43.362209 -0.805556
			CHANNELS 3 Zrotation Yrotation Xrotation
			JOINT RightFoot
			{
				OFFSET 0.000002 -42.117393 -3.478398
				CHANNELS 3 Zrotation Yrotation Xrotation
				JOINT RightToeBase
				{
					OFFSET -0.000001 -5.079609 13.284196
					CHANNELS 3 Zrotation Yrotation Xrotation
					JOINT RightToeEnd
					{
						OFFSET 0.009532 -1.634382 6.460591
						CHANNELS 3 Zrotation Yrotation Xrotation
						End Site
						{
							OFFSET 0.000000 0.000000 0.000000
						}
					}
				}
			}
		}
	}
}
MOTION
Frames: 4
Frame Time: 0.033333
-1.688556 99.739410 6.598313 -1.132958 -30.172428 -2.132218 -0.964752 -0.419295 -0.456178 -0.566130 -1.032485 -6.213070 2.456925 -2.649029 10.727667 29.228931 -20.970556 17.771910 -7.289703 -22.046160 -1.505850 -1.561182 -25.587238 -1.895669 0.000077 -0.000022 0.000006 0.206361 -0.149994 -0.014924 1.014529 -3.903843 -10.703812 -0.601792 3.606817 -10.747963 4.125731 -0.472874 22.409908 -51.322159 23.442024 12.450242 1.446511 -79.032394 -0.191499 43.174908 -13.083874 -7.666272 -5.882102 9.861278 0.702591 -10.936860 -0.360574 7.156197 0.000001 8.774812 -0.000001 -15.902539 18.102938 6.282362 -1.844031 2.498502 -2.507275 -10.163592 4.678941 4.621103 -20.976000 -0.000003 0.000004 -21.226257 2.451693 -3.593994 -0.000002 -0.000006 0.000000 -1.362681 2.240796 -0.746323 -21.334898 0.584909 3.008320 -13.821197 -0.000001 0.000003 -23.887135 -0.249078 -0.839481 -60.348694 2.607995 -1.747009 -0.294025 1.679686 0.833255 -14.218195 0.093216 1.300578 -34.212006 -0.287563 0.967171 -20.033180 0.964534 1.212841 0.000000 -0.000000 -0.000000 -3.440386 0.788233 0.501656 -15.928171 -3.167306 2.999702 -6.338819 -0.000001 0.000002 -18.123417 3.648175 -4.905661 -0.000005 0.000001 -0.000002 0.733216 7.413657 19.457897 80.478363 -21.696745 -24.435562 9.536269 82.987083 9.284204 -38.580765 0.842004 -24.268396 2.243540 -5.255032 -3.180154 14.282877 -0.826593 6.952493 -0.000002 -12.690588 0.000000 16.275749 -18.122803 2.829792 1.665665 -1.955920 -2.878296 4.727793 -4.170583 4.993918 11.020513 0.000003 -0.000003 12.109035 -3.735708 -2.866779 -0.000001 0.000000 -0.000000 1.291985 -1.928546 -1.498088 14.800114 0.567468 3.865602 14.242556 -1.341733 -6.660650 19.631939 0.143927 -0.648246 49.840569 -1.250172 -6.128949 0.353029 -1.511148 -0.031941 20.222773 3.684305 2.316625 18.787247 0.000005 -0.000003 10.751614 -0.479867 1.397903 -0.000002 0.000001 -0.000000 3.273804 0.305949 -0.580111 21.486790 11.830360 2.266125 8.162917 0.000002 -0.000002 18.399052 -3.798977 -4.940568 0.000003 0.000000 -0.000000 -0.106863 2.489388 2.649744 0.060436 -0.186644 9.422075 -2.323509 26.998749 -10.091841 1.728171 -2.172195 -0.987506 -0.000000 0.000000 0.000002 4.009675 3.727043 -8.037698 0.060739 0.313617 14.342653 -1.869019 13.082388 -2.237924 -1.404303 1.071110 -1.113645 0.000000 -0.000000 -0.000001 
-1.841597 99.752083 6.562719 -1.082757 -30.412502 -2.212540 -0.906558 -0.448713 -0.610988 -0.544826 -1.023229 -6.268064 2.523150 -2.803679 10.565540 29.075100 -20.623722 17.418087 -7.216239 -22.385252 -1.493015 -1.544914 -25.890194 -2.642575 0.000077 -0.000023 0.000005 0.195507 -0.141620 -0.021836 1.009612 -3.891272 -10.689424 -0.619311 3.610940 -10.720850 4.053185 -0.505892 22.288912 -51.660622 23.732025 12.740493 1.794484 -78.536377 -0.559679 43.687183 -12.806709 -8.423080 -5.882101 9.861278 0.702590 -10.936858 -0.360575 7.156198 0.000001 8.774815 0.000000 -15.834934 18.005064 6.354430 -1.844031 2.498503 -2.507276 -10.163589 4.678940 4.621104 -20.975996 -0.000004 0.000004 -21.226248 2.451692 -3.593993 0.000000 -0.000006 0.000000 -1.362681 2.240797 -0.746324 -21.334890 0.584908 3.008320 -13.821197 -0.000002 0.000003 -23.887131 -0.249078 -0.839481 -60.322430 2.583198 -1.744922 -0.294024 1.679686 0.833254 -14.218194 0.093214 1.300579 -34.212006 -0.287564 0.967170 -20.033180 0.964536 1.212842 0.000000 -0.000001 0.000000 -3.440386 0.788233 0.501655 -15.928167 -3.167306 2.999702 -6.338817 -0.000001 0.000001 -18.123411 3.648176 -4.905659 -0.000005 0.000001 -0.000001 0.748143 7.353038 19.159702 80.595398 -21.752512 -23.858463 7.390888 82.012764 7.235011 -39.185143 1.759859 -22.813202 2.243540 -5.255033 -3.180155 14.282877 -0.826594 6.952493 -0.000001 -12.690590 -0.000001 16.348930 -18.120317 2.825006 1.665665 -1.955919 -2.878296 4.727793 -4.170584 4.993918 11.020513 0.000003 -0.000002 12.109032 -3.735711 -2.866780 0.000001 -0.000001 -0.000000 1.291985 -1.928549 -1.498087 14.800114 0.567467 3.865603 14.242553 -1.341737 -6.660647 19.631939 0.143924 -0.648243 49.879410 -1.307597 -6.121574 0.353029 -1.511148 -0.031939 20.222771 3.684305 2.316628 18.787247 0.000004 -0.000001 10.751611 -0.479867 1.397903 0.000000 0.000000 0.000000 3.273804 0.305947 -0.580110 21.486792 11.830363 2.266131 8.162918 0.000001 -0.000001 18.399054 -3.798980 -4.940569 0.000003 0.000000 -0.000001 -0.024694 2.694021 3.039049 0.056845 -0.184222 8.973499 -2.473613 27.045744 -9.984056 1.726064 -2.190386 -1.063271 -0.000000 -0.000000 0.000002 4.063550 3.692279 -7.853711 0.056631 0.320662 14.201674 -1.625830 13.268361 -2.143233 -1.401814 1.070473 -1.116851 -0.000000 -0.000000 -0.000001 
-1.981716 99.780449 6.552283 -1.017224 -30.475115 -2.226658 -0.825339 -0.451730 -0.724228 -0.511252 -1.003601 -6.310496 2.584393 -2.923385 10.433068 28.880285 -20.147190 16.996849 -7.108734 -22.500086 -1.512321 -1.408041 -26.060202 -3.499769 0.000077 -0.000023 0.000006 0.181662 -0.125751 -0.023951 1.005082 -3.869243 -10.649128 -0.643723 3.617469 -10.682219 3.964921 -0.500456 22.170595 -51.992634 23.970211 12.873069 2.006971 -78.179581 -0.829090 44.120983 -12.537035 -9.234935 -5.882102 9.861279 0.702591 -10.936859 -0.360575 7.156198 -0.000000 8.774815 -0.000001 -15.766654 17.926767 6.436383 -1.844031 2.498503 -2.507275 -10.163589 4.678940 4.621105 -20.975996 -0.000002 0.000006 -21.226254 2.451696 -3.593992 -0.000001 -0.000006 0.000000 -1.362681 2.240797 -0.746324 -21.334887 0.584910 3.008323 -13.821193 -0.000001 0.000003 -23.887133 -0.249076 -0.839480 -60.269039 2.565744 -1.732652 -0.294024 1.679687 0.833256 -14.218194 0.093215 1.300581 -34.212006 -0.287560 0.967172 -20.033180 0.964538 1.212841 -0.000000 -0.000001 0.000000 -3.440386 0.788233 0.501655 -15.928167 -3.167306 2.999705 -6.338817 -0.000001 0.000002 -18.123415 3.648178 -4.905660 -0.000007 0.000002 -0.000002 0.714678 7.312596 18.980875 80.839630 -21.635223 -23.282009 5.464036 80.826447 5.343633 -39.936367 2.821701 -21.332943 2.243539 -5.255031 -3.180153 14.282879 -0.826594 6.952496 -0.000004 -12.690592 0.000002 16.441114 -18.093267 2.787620 1.665664 -1.955920 -2.878295 4.727795 -4.170584 4.993919 11.020513 0.000005 -0.000000 12.109032 -3.735709 -2.866776 0.000000 -0.000001 0.000000 1.291984 -1.928547 -1.498085 14.800113 0.567470 3.865603 14.242553 -1.341733 -6.660645 19.631939 0.143926 -0.648241 49.977692 -1.351120 -6.100331 0.353029 -1.511150 -0.031940 20.222771 3.684306 2.316627 18.787245 0.000006 0.000001 10.751612 -0.479868 1.397905 0.000000 -0.000001 0.000000 3.273804 0.305947 -0.580110 21.486794 11.830362 2.266130 8.162917 0.000002 0.000000 18.399057 -3.798980 -4.940566 0.000003 -0.000000 -0.000001 0.046330 2.820838 3.389115 0.053066 -0.179906 8.327343 -2.529978 27.034294 -9.740907 1.724960 -2.199776 -1.122835 -0.000000 0.000000 0.000002 4.087476 3.644459 -7.760093 0.047606 0.297671 14.041443 -1.410916 13.347515 -1.999266 -1.401615 1.049264 -1.134127 0.000000 0.000000 -0.000001 
-2.123874 99.808952 6.502381 -0.921041 -30.292868 -2.210849 -0.740502 -0.485467 -0.818801 -0.475469 -0.941906 -6.317393 2.633438 -3.047005 10.335944 28.666647 -19.590105 16.683462 -6.947596 -22.411089 -1.604682 -1.168657 -26.011467 -4.360103 0.000077 -0.000022 0.000006 0.164777 -0.107965 -0.020856 0.995333 -3.852904 -10.635716 -0.667673 3.635578 -10.654924 3.857405 -0.443875 22.045856 -52.266861 24.054695 12.960708 2.095259 -77.788216 -0.945849 44.530270 -12.333364 -10.000856 -5.882101 9.861279 0.702589 -10.936858 -0.360575 7.156197 0.000001 8.774812 -0.000001 -15.715402 17.897720 6.488047 -1.844031 2.498502 -2.507277 -10.163589 4.678941 4.621104 -20.975992 -0.000004 0.000004 -21.226248 2.451692 -3.593993 -0.000001 -0.000007 0.000000 -1.362680 2.240797 -0.746323 -21.334887 0.584908 3.008320 -13.821195 -0.000003 0.000003 -23.887125 -0.249078 -0.839481 -60.234581 2.539997 -1.712400 -0.294024 1.679686 0.833255 -14.218190 0.093214 1.300579 -34.211998 -0.287563 0.967173 -20.033178 0.964535 1.212842 -0.000000 0.000000 -0.000000 -3.440385 0.788232 0.501656 -15.928167 -3.167306 2.999703 -6.338817 -0.000001 0.000002 -18.123413 3.648175 -4.905661 -0.000005 0.000001 -0.000003 0.674456 7.273759 18.928297 81.281364 -21.331182 -22.809175 3.699086 79.421669 3.701308 -40.706032 3.821524 -19.954514 2.243540 -5.255033 -3.180153 14.282877 -0.826595 6.952497 -0.000003 -12.690590 0.000002 16.502449 -18.073471 2.751894 1.665665 -1.955921 -2.878297 4.727794 -4.170584 4.993917 11.020514 0.000003 0.000000 12.109035 -3.735713 -2.866779 0.000000 0.000000 0.000000 1.291985 -1.928548 -1.498089 14.800113 0.567467 3.865602 14.242554 -1.341735 -6.660648 19.631939 0.143927 -0.648243 50.075504 -1.349324 -6.086449 0.353029 -1.511148 -0.031940 20.222769 3.684307 2.316627 18.787249 0.000004 -0.000002 10.751612 -0.479870 1.397904 0.000000 -0.000002 0.000000 3.273804 0.305948 -0.580109 21.486790 11.830364 2.266129 8.162916 0.000001 -0.000001 18.399052 -3.798980 -4.940568 0.000002 -0.000001 -0.000001 0.083771 2.827286 3.599833 0.049208 -0.160876 7.767274 -2.600334 26.944679 -9.494533 1.725328 -2.201414 -1.148183 -0.000000 0.000000 0.000002 4.064868 3.494408 -7.713229 0.039755 0.282297 13.848601 -1.240291 13.276222 -1.900631 -1.397310 1.021645 -1.136419 -0.000000 -0.000000 -0.000001 
